<svg xmlns="http://www.w3.org/2000/svg" xmlns:xlink="http://www.w3.org/1999/xlink" contentStyleType="text/css" data-diagram-type="DESCRIPTION" height="856px" preserveAspectRatio="none" style="width:6762px;height:856px;background:#FFFFFF;" version="1.1" viewBox="0 0 6762 856" width="6762px" zoomAndPan="magnify"><title>SeisComP messaging flow: fracture</title><defs/><g><g class="title" data-source-line="60"><text fill="#000000" font-family="sans-serif" font-size="50" font-weight="bold" lengthAdjust="spacing" textLength="876.7991" x="2935.6004" y="63.4499">SeisComP messaging flow: fracture</text></g><!--cluster Cape-specific Modules--><g class="cluster" data-entity="Cape-specific Modules" data-source-line="63" data-uid="ent0002" id="cluster_Cape-specific Modules"><rect fill="#FDF8D0" height="341" rx="2.5" ry="2.5" style="stroke:#000000;stroke-width:1;" width="2277" x="539" y="96.0999"/><rect fill="#FDF8D0" height="10" style="stroke:#000000;stroke-width:1;" width="15" x="2796" y="101.0999"/><rect fill="#FDF8D0" height="2" style="stroke:#000000;stroke-width:1;" width="4" x="2794" y="103.0999"/><rect fill="#FDF8D0" height="2" style="stroke:#000000;stroke-width:1;" width="4" x="2794" y="107.0999"/><text fill="#000000" font-family="sans-serif" font-size="24" font-weight="bold" lengthAdjust="spacing" textLength="264.9112" x="1545.0444" y="134.7559">Cape-specific Modules</text></g><!--cluster cape-autopick--><g class="cluster" data-entity="cape-autopick" data-source-line="64" data-uid="ent0003" id="cluster_cape-autopick"><rect fill="#D6E7DF" height="176" rx="2.5" ry="2.5" style="stroke:#000000;stroke-width:1;" width="585" x="2199" y="196.0999"/><text fill="#000000" font-family="sans-serif" font-size="24" font-weight="bold" lengthAdjust="spacing" textLength="169.1995" x="2406.9002" y="223.7559">cape-autopick</text></g><!--cluster cape-scanloc--><g class="cluster" data-entity="cape-scanloc" data-source-line="71" data-uid="ent0005" id="cluster_cape-scanloc"><rect fill="#D6E7DF" height="242" rx="2.5" ry="2.5" style="stroke:#000000;stroke-width:1;" width="531" x="1628" y="163.0999"/><text fill="#000000" font-family="sans-serif" font-size="24" font-weight="bold" lengthAdjust="spacing" textLength="152.9756" x="1817.0122" y="190.7559">cape-scanloc</text></g><!--cluster screloc-cape--><g class="cluster" data-entity="screloc-cape" data-source-line="80" data-uid="ent0007" id="cluster_screloc-cape"><rect fill="#D6E7DF" height="209" rx="2.5" ry="2.5" style="stroke:#000000;stroke-width:1;" width="495" x="1093" y="179.5999"/><text fill="#000000" font-family="sans-serif" font-size="24" font-weight="bold" lengthAdjust="spacing" textLength="147.7916" x="1266.6042" y="207.2559">screloc-cape</text></g><!--cluster scrtdd--><g class="cluster" data-entity="scrtdd" data-source-line="88" data-uid="ent0009" id="cluster_scrtdd"><rect fill="#D6E7DF" height="209" rx="2.5" ry="2.5" style="stroke:#000000;stroke-width:1;" width="482" x="571" y="179.5999"/><text fill="#000000" font-family="sans-serif" font-size="24" font-weight="bold" lengthAdjust="spacing" textLength="75.9598" x="774.0201" y="207.2559">scrtdd</text></g><!--cluster Common Modules--><g class="cluster" data-entity="Common Modules" data-source-line="98" data-uid="ent0011" id="cluster_Common Modules"><rect fill="#FDF8D0" height="266" rx="2.5" ry="2.5" style="stroke:#000000;stroke-width:1;" width="1530" x="2840" y="151.0999"/><rect fill="#FDF8D0" height="10" style="stroke:#000000;stroke-width:1;" width="15" x="4350" y="156.0999"/><rect fill="#FDF8D0" height="2" style="stroke:#000000;stroke-width:1;" width="4" x="4348" y="158.0999"/><rect fill="#FDF8D0" height="2" style="stroke:#000000;stroke-width:1;" width="4" x="4348" y="162.0999"/><text fill="#000000" font-family="sans-serif" font-size="24" font-weight="bold" lengthAdjust="spacing" textLength="216.0234" x="3496.9883" y="189.7559">Common Modules</text></g><!--cluster Newberry-specific Modules--><g class="cluster" data-entity="Newberry-specific Modules" data-source-line="125" data-uid="ent0015" id="cluster_Newberry-specific Modules"><rect fill="#FDF8D0" height="341" rx="2.5" ry="2.5" style="stroke:#000000;stroke-width:1;" width="2362" x="4394" y="96.0999"/><rect fill="#FDF8D0" height="10" style="stroke:#000000;stroke-width:1;" width="15" x="6736" y="101.0999"/><rect fill="#FDF8D0" height="2" style="stroke:#000000;stroke-width:1;" width="4" x="6734" y="103.0999"/><rect fill="#FDF8D0" height="2" style="stroke:#000000;stroke-width:1;" width="4" x="6734" y="107.0999"/><text fill="#000000" font-family="sans-serif" font-size="24" font-weight="bold" lengthAdjust="spacing" textLength="324.8151" x="5412.5925" y="134.7559">Newberry-specific Modules</text></g><!--cluster newb-autopick--><g class="cluster" data-entity="newb-autopick" data-source-line="126" data-uid="ent0016" id="cluster_newb-autopick"><rect fill="#D6E7DF" height="176" rx="2.5" ry="2.5" style="stroke:#000000;stroke-width:1;" width="639" x="6085" y="196.0999"/><text fill="#000000" font-family="sans-serif" font-size="24" font-weight="bold" lengthAdjust="spacing" textLength="178.6795" x="6315.1602" y="223.7559">newb-autopick</text></g><!--cluster newb-scanloc--><g class="cluster" data-entity="newb-scanloc" data-source-line="133" data-uid="ent0018" id="cluster_newb-scanloc"><rect fill="#D6E7DF" height="242" rx="2.5" ry="2.5" style="stroke:#000000;stroke-width:1;" width="541" x="5504" y="163.0999"/><text fill="#000000" font-family="sans-serif" font-size="24" font-weight="bold" lengthAdjust="spacing" textLength="162.4556" x="5693.2722" y="190.7559">newb-scanloc</text></g><!--cluster screloc--><g class="cluster" data-entity="screloc" data-source-line="142" data-uid="ent0020" id="cluster_screloc"><rect fill="#D6E7DF" height="209" rx="2.5" ry="2.5" style="stroke:#000000;stroke-width:1;" width="505" x="4959" y="179.5999"/><text fill="#000000" font-family="sans-serif" font-size="24" font-weight="bold" lengthAdjust="spacing" textLength="83.8558" x="5169.5721" y="207.2559">screloc</text></g><!--cluster newb_scrtdd--><g class="cluster" data-entity="newb_scrtdd" data-source-line="150" data-uid="ent0022" id="cluster_newb_scrtdd"><rect fill="#D6E7DF" height="209" rx="2.5" ry="2.5" style="stroke:#000000;stroke-width:1;" width="493" x="4426" y="179.5999"/><text fill="#000000" font-family="sans-serif" font-size="24" font-weight="bold" lengthAdjust="spacing" textLength="151.5116" x="4596.7442" y="207.2559">newb_scrtdd</text></g><!--cluster Cape messaging groups--><g class="cluster" data-entity="Cape messaging groups" data-source-line="163" data-uid="ent0024" id="cluster_Cape messaging groups"><rect fill="#FDF8D0" height="120" rx="2.5" ry="2.5" style="stroke:#000000;stroke-width:1;" width="660" x="1629" y="650.0999"/><rect fill="#FDF8D0" height="10" style="stroke:#000000;stroke-width:1;" width="15" x="2269" y="655.0999"/><rect fill="#FDF8D0" height="2" style="stroke:#000000;stroke-width:1;" width="4" x="2267" y="657.0999"/><rect fill="#FDF8D0" height="2" style="stroke:#000000;stroke-width:1;" width="4" x="2267" y="661.0999"/><text fill="#000000" font-family="sans-serif" font-size="24" font-weight="bold" lengthAdjust="spacing" textLength="285.0472" x="1816.4764" y="688.7559">Cape messaging groups</text></g><!--cluster Common messaging groups--><g class="cluster" data-entity="Common messaging groups" data-source-line="169" data-uid="ent0028" id="cluster_Common messaging groups"><rect fill="#FDF8D0" height="120" rx="2.5" ry="2.5" style="stroke:#000000;stroke-width:1;" width="797" x="3116" y="650.0999"/><rect fill="#FDF8D0" height="10" style="stroke:#000000;stroke-width:1;" width="15" x="3893" y="655.0999"/><rect fill="#FDF8D0" height="2" style="stroke:#000000;stroke-width:1;" width="4" x="3891" y="657.0999"/><rect fill="#FDF8D0" height="2" style="stroke:#000000;stroke-width:1;" width="4" x="3891" y="661.0999"/><text fill="#000000" font-family="sans-serif" font-size="24" font-weight="bold" lengthAdjust="spacing" textLength="333.791" x="3347.6045" y="688.7559">Common messaging groups</text></g><!--cluster Newberry messaging groups--><g class="cluster" data-entity="Newberry messaging groups" data-source-line="177" data-uid="ent0034" id="cluster_Newberry messaging groups"><rect fill="#FDF8D0" height="120" rx="2.5" ry="2.5" style="stroke:#000000;stroke-width:1;" width="692" x="4040" y="650.0999"/><rect fill="#FDF8D0" height="10" style="stroke:#000000;stroke-width:1;" width="15" x="4712" y="655.0999"/><rect fill="#FDF8D0" height="2" style="stroke:#000000;stroke-width:1;" width="4" x="4710" y="657.0999"/><rect fill="#FDF8D0" height="2" style="stroke:#000000;stroke-width:1;" width="4" x="4710" y="661.0999"/><text fill="#000000" font-family="sans-serif" font-size="24" font-weight="bold" lengthAdjust="spacing" textLength="344.951" x="4213.5245" y="688.7559">Newberry messaging groups</text></g><!--entity r1--><g class="entity" data-entity="r1" data-source-line="65" data-uid="ent0004" id="entity_r1"><rect fill="#D6E7DF" height="93.3758" rx="2.5" ry="2.5" style="stroke:#000000;stroke-width:0.5;" width="518.2627" x="2242" y="255.0999"/><text fill="#000000" font-family="sans-serif" font-size="24" lengthAdjust="spacing" textLength="498.2627" x="2252" y="290.7559">Makes picks on Cape continuous waveforms</text><line style="stroke:#000000;stroke-width:1;" x1="2243" x2="2759.2627" y1="297.7878" y2="297.7878"/><text fill="#000000" font-family="sans-serif" font-size="24" lengthAdjust="spacing" textLength="427.7508" x="2252" y="327.4438">Sends Pick objects to CAPEPICK group</text></g><!--entity r2--><g class="entity" data-entity="r2" data-source-line="72" data-uid="ent0006" id="entity_r2"><rect fill="#D6E7DF" height="158.7516" rx="2.5" ry="2.5" style="stroke:#000000;stroke-width:0.5;" width="462.6787" x="1671.5" y="222.0999"/><text fill="#000000" font-family="sans-serif" font-size="24" lengthAdjust="spacing" textLength="381.3589" x="1681.5" y="257.7559">Takes picks from CAPEPICK group</text><line style="stroke:#000000;stroke-width:1;" x1="1672.5" x2="2133.1787" y1="264.7878" y2="264.7878"/><text fill="#000000" font-family="sans-serif" font-size="24" lengthAdjust="spacing" textLength="429.0948" x="1681.5" y="294.4438">Performs DBSCAN clustering on picks,</text><text fill="#000000" font-family="sans-serif" font-size="24" lengthAdjust="spacing" textLength="389.9989" x="1681.5" y="327.1317">locates clustered picks, then sends</text><text fill="#000000" font-family="sans-serif" font-size="24" lengthAdjust="spacing" textLength="442.6787" x="1681.5" y="359.8196">origin objects to CAPELOCATION group</text></g><!--entity r3--><g class="entity" data-entity="r3" data-source-line="81" data-uid="ent0008" id="entity_r3"><rect fill="#D6E7DF" height="126.0637" rx="2.5" ry="2.5" style="stroke:#000000;stroke-width:0.5;" width="426.5588" x="1136.5" y="238.5999"/><text fill="#000000" font-family="sans-serif" font-size="24" lengthAdjust="spacing" textLength="395.0629" x="1146.5" y="274.2559">Takes origins from CAPELOCATION</text><line style="stroke:#000000;stroke-width:1;" x1="1137.5" x2="1562.0588" y1="281.2878" y2="281.2878"/><text fill="#000000" font-family="sans-serif" font-size="24" lengthAdjust="spacing" textLength="376.9909" x="1146.5" y="310.9438">Relocates each origin with NLLoc,</text><text fill="#000000" font-family="sans-serif" font-size="24" lengthAdjust="spacing" textLength="406.5588" x="1146.5" y="343.6317">sends new origin to CAPELOCATION</text></g><!--entity r4--><g class="entity" data-entity="r4" data-source-line="89" data-uid="ent0010" id="entity_r4"><rect fill="#D6E7DF" height="126.0637" rx="2.5" ry="2.5" style="stroke:#000000;stroke-width:0.5;" width="415.0629" x="614.5" y="238.5999"/><text fill="#000000" font-family="sans-serif" font-size="24" lengthAdjust="spacing" textLength="395.0629" x="624.5" y="274.2559">Takes origins from CAPELOCATION</text><line style="stroke:#000000;stroke-width:1;" x1="615.5" x2="1028.5629" y1="281.2878" y2="281.2878"/><text fill="#000000" font-family="sans-serif" font-size="24" lengthAdjust="spacing" textLength="384.8868" x="624.5" y="310.9438">Relocates with HypoDD and sends</text><text fill="#000000" font-family="sans-serif" font-size="24" lengthAdjust="spacing" textLength="308.9991" x="624.5" y="343.6317">origin to CAPERELOCATION</text></g><!--entity scamp--><g class="entity" data-entity="scamp" data-source-line="99" data-uid="ent0012" id="entity_scamp"><rect fill="#D6E7DF" height="134.0637" rx="2.5" ry="2.5" style="stroke:#000000;stroke-width:0.5;" width="465.1507" x="3888.5" y="234.5999"/><text fill="#000000" font-family="sans-serif" font-size="24" font-weight="bold" lengthAdjust="spacing" textLength="77.5198" x="3898.5" y="270.2559">scamp</text><line style="stroke:#000000;stroke-width:1;" x1="3889.5" x2="4352.6507" y1="277.2878" y2="277.2878"/><text fill="#000000" font-family="sans-serif" font-size="24" lengthAdjust="spacing" textLength="347.663" x="3898.5" y="306.9438">Takes picks from PICKS groups</text><line style="stroke:#000000;stroke-width:1;" x1="3889.5" x2="4352.6507" y1="317.9757" y2="317.9757"/><text fill="#000000" font-family="sans-serif" font-size="24" lengthAdjust="spacing" textLength="445.1507" x="3898.5" y="347.6317">Sends amplitudes to AMPLITUDE group</text></g><!--entity scmag--><g class="entity" data-entity="scmag" data-source-line="106" data-uid="ent0013" id="entity_scmag"><rect fill="#D6E7DF" height="166.7516" rx="2.5" ry="2.5" style="stroke:#000000;stroke-width:0.5;" width="493.9506" x="3359" y="218.0999"/><text fill="#000000" font-family="sans-serif" font-size="24" font-weight="bold" lengthAdjust="spacing" textLength="77.5198" x="3369" y="253.7559">scmag</text><line style="stroke:#000000;stroke-width:1;" x1="3360" x2="3851.9506" y1="260.7878" y2="260.7878"/><text fill="#000000" font-family="sans-serif" font-size="24" lengthAdjust="spacing" textLength="473.9506" x="3369" y="290.4438">Takes amplitudes from AMPLITUDE group</text><text fill="#000000" font-family="sans-serif" font-size="24" lengthAdjust="spacing" textLength="401.6149" x="3369" y="323.1317">and origins from LOCATION groups</text><line style="stroke:#000000;stroke-width:1;" x1="3360" x2="3851.9506" y1="334.1636" y2="334.1636"/><text fill="#000000" font-family="sans-serif" font-size="24" lengthAdjust="spacing" textLength="462.4067" x="3369" y="363.8196">Sends magnitudes to MAGNITUDE group</text></g><!--entity scevent--><g class="entity" data-entity="scevent" data-source-line="114" data-uid="ent0014" id="entity_scevent"><rect fill="#D6E7DF" height="199.4395" rx="2.5" ry="2.5" style="stroke:#000000;stroke-width:0.5;" width="467.7426" x="2856" y="202.0999"/><text fill="#000000" font-family="sans-serif" font-size="24" font-style="italic" font-weight="bold" lengthAdjust="spacing" textLength="86.3037" x="2866" y="237.7559">scevent</text><line style="stroke:#000000;stroke-width:1;" x1="2857" x2="3322.7426" y1="244.7878" y2="244.7878"/><text fill="#000000" font-family="sans-serif" font-size="24" lengthAdjust="spacing" textLength="400.6789" x="2866" y="274.4438">Takes origins and magnitudes from</text><text fill="#000000" font-family="sans-serif" font-size="24" lengthAdjust="spacing" textLength="447.7426" x="2866" y="307.1317">LOCATION and MAGNITUDE messaging</text><text fill="#000000" font-family="sans-serif" font-size="24" lengthAdjust="spacing" textLength="86.7118" x="2866" y="339.8196">groups.</text><line style="stroke:#000000;stroke-width:1;" x1="2857" x2="3322.7426" y1="350.8515" y2="350.8515"/><text fill="#000000" font-family="sans-serif" font-size="24" lengthAdjust="spacing" textLength="407.0869" x="2866" y="380.5075">Sends event objects to EVENT group</text></g><!--entity r5--><g class="entity" data-entity="r5" data-source-line="127" data-uid="ent0017" id="entity_r5"><rect fill="#D6E7DF" height="93.3758" rx="2.5" ry="2.5" style="stroke:#000000;stroke-width:0.5;" width="572.3345" x="6128" y="255.0999"/><text fill="#000000" font-family="sans-serif" font-size="24" lengthAdjust="spacing" textLength="552.3345" x="6138" y="290.7559">Makes picks on Newberry continuous waveforms</text><line style="stroke:#000000;stroke-width:1;" x1="6129" x2="6699.3345" y1="297.7878" y2="297.7878"/><text fill="#000000" font-family="sans-serif" font-size="24" lengthAdjust="spacing" textLength="438.8868" x="6138" y="327.4438">Sends Pick objects to NEWBPICK group</text></g><!--entity r6--><g class="entity" data-entity="r6" data-source-line="134" data-uid="ent0019" id="entity_r6"><rect fill="#D6E7DF" height="158.7516" rx="2.5" ry="2.5" style="stroke:#000000;stroke-width:0.5;" width="473.8147" x="5547" y="222.0999"/><text fill="#000000" font-family="sans-serif" font-size="24" lengthAdjust="spacing" textLength="392.4949" x="5557" y="257.7559">Takes picks from NEWBPICK group</text><line style="stroke:#000000;stroke-width:1;" x1="5548" x2="6019.8147" y1="264.7878" y2="264.7878"/><text fill="#000000" font-family="sans-serif" font-size="24" lengthAdjust="spacing" textLength="429.0948" x="5557" y="294.4438">Performs DBSCAN clustering on picks,</text><text fill="#000000" font-family="sans-serif" font-size="24" lengthAdjust="spacing" textLength="389.9989" x="5557" y="327.1317">locates clustered picks, then sends</text><text fill="#000000" font-family="sans-serif" font-size="24" lengthAdjust="spacing" textLength="453.8147" x="5557" y="359.8196">origin objects to NEWBLOCATION group</text></g><!--entity r7--><g class="entity" data-entity="r7" data-source-line="143" data-uid="ent0021" id="entity_r7"><rect fill="#D6E7DF" height="126.0637" rx="2.5" ry="2.5" style="stroke:#000000;stroke-width:0.5;" width="437.6948" x="5002" y="238.5999"/><text fill="#000000" font-family="sans-serif" font-size="24" lengthAdjust="spacing" textLength="406.1988" x="5012" y="274.2559">Takes origins from NEWBLOCATION</text><line style="stroke:#000000;stroke-width:1;" x1="5003" x2="5438.6948" y1="281.2878" y2="281.2878"/><text fill="#000000" font-family="sans-serif" font-size="24" lengthAdjust="spacing" textLength="376.9909" x="5012" y="310.9438">Relocates each origin with NLLoc,</text><text fill="#000000" font-family="sans-serif" font-size="24" lengthAdjust="spacing" textLength="417.6948" x="5012" y="343.6317">sends new origin to NEWBLOCATION</text></g><!--entity r8--><g class="entity" data-entity="r8" data-source-line="151" data-uid="ent0023" id="entity_r8"><rect fill="#D6E7DF" height="126.0637" rx="2.5" ry="2.5" style="stroke:#000000;stroke-width:0.5;" width="426.1988" x="4469" y="238.5999"/><text fill="#000000" font-family="sans-serif" font-size="24" lengthAdjust="spacing" textLength="406.1988" x="4479" y="274.2559">Takes origins from NEWBLOCATION</text><line style="stroke:#000000;stroke-width:1;" x1="4470" x2="4894.1988" y1="281.2878" y2="281.2878"/><text fill="#000000" font-family="sans-serif" font-size="24" lengthAdjust="spacing" textLength="384.8868" x="4479" y="310.9438">Relocates with HypoDD and sends</text><text fill="#000000" font-family="sans-serif" font-size="24" lengthAdjust="spacing" textLength="320.1351" x="4479" y="343.6317">origin to NEWBRELOCATION</text></g><!--entity CAPEPICK--><g class="entity" data-entity="CAPEPICK" data-source-line="164" data-uid="ent0025" id="entity_CAPEPICK"><rect fill="#D6E7DF" height="52.6879" rx="2.5" ry="2.5" style="stroke:#000000;stroke-width:0.5;" width="131.0477" x="2141.5" y="701.0999"/><text fill="#000000" font-family="sans-serif" font-size="24" lengthAdjust="spacing" textLength="111.0477" x="2151.5" y="736.7559">CAPEPICK</text></g><!--entity CAPELOCATION--><g class="entity" data-entity="CAPELOCATION" data-source-line="165" data-uid="ent0026" id="entity_CAPELOCATION"><rect fill="#D6E7DF" height="52.6879" rx="2.5" ry="2.5" style="stroke:#000000;stroke-width:0.5;" width="198.6555" x="1645.5" y="701.0999"/><text fill="#000000" font-family="sans-serif" font-size="24" lengthAdjust="spacing" textLength="178.6555" x="1655.5" y="736.7559">CAPELOCATION</text></g><!--entity CAPERELOCATION--><g class="entity" data-entity="CAPERELOCATION" data-source-line="166" data-uid="ent0027" id="entity_CAPERELOCATION"><rect fill="#D6E7DF" height="52.6879" rx="2.5" ry="2.5" style="stroke:#000000;stroke-width:0.5;" width="226.9274" x="1879.5" y="701.0999"/><text fill="#000000" font-family="sans-serif" font-size="24" lengthAdjust="spacing" textLength="206.9274" x="1889.5" y="736.7559">CAPERELOCATION</text></g><!--entity EVENT--><g class="entity" data-entity="EVENT" data-source-line="170" data-uid="ent0029" id="entity_EVENT"><rect fill="#D6E7DF" height="52.6879" rx="2.5" ry="2.5" style="stroke:#000000;stroke-width:0.5;" width="92.6718" x="3131.5" y="701.0999"/><text fill="#000000" font-family="sans-serif" font-size="24" lengthAdjust="spacing" textLength="72.6718" x="3141.5" y="736.7559">EVENT</text></g><!--entity AMPLITUDE--><g class="entity" data-entity="AMPLITUDE" data-source-line="171" data-uid="ent0030" id="entity_AMPLITUDE"><rect fill="#D6E7DF" height="52.6879" rx="2.5" ry="2.5" style="stroke:#000000;stroke-width:0.5;" width="154.0876" x="3634" y="701.0999"/><text fill="#000000" font-family="sans-serif" font-size="24" lengthAdjust="spacing" textLength="134.0876" x="3644" y="736.7559">AMPLITUDE</text></g><!--entity MAGNITUDE--><g class="entity" data-entity="MAGNITUDE" data-source-line="172" data-uid="ent0031" id="entity_MAGNITUDE"><rect fill="#D6E7DF" height="52.6879" rx="2.5" ry="2.5" style="stroke:#000000;stroke-width:0.5;" width="162.7036" x="3435.5" y="701.0999"/><text fill="#000000" font-family="sans-serif" font-size="24" lengthAdjust="spacing" textLength="142.7036" x="3445.5" y="736.7559">MAGNITUDE</text></g><!--entity LOCATION--><g class="entity" data-entity="LOCATION" data-source-line="173" data-uid="ent0032" id="entity_LOCATION"><rect fill="#D6E7DF" height="52.6879" rx="2.5" ry="2.5" style="stroke:#000000;stroke-width:0.5;" width="140.2876" x="3260" y="701.0999"/><text fill="#000000" font-family="sans-serif" font-size="24" lengthAdjust="spacing" textLength="120.2876" x="3270" y="736.7559">LOCATION</text></g><!--entity PICK--><g class="entity" data-entity="PICK" data-source-line="174" data-uid="ent0033" id="entity_PICK"><rect fill="#D6E7DF" height="52.6879" rx="2.5" ry="2.5" style="stroke:#000000;stroke-width:0.5;" width="72.6798" x="3823.5" y="701.0999"/><text fill="#000000" font-family="sans-serif" font-size="24" lengthAdjust="spacing" textLength="52.6798" x="3833.5" y="736.7559">PICK</text></g><!--entity NEWBPICK--><g class="entity" data-entity="NEWBPICK" data-source-line="178" data-uid="ent0035" id="entity_NEWBPICK"><rect fill="#D6E7DF" height="52.6879" rx="2.5" ry="2.5" style="stroke:#000000;stroke-width:0.5;" width="142.1836" x="4574" y="701.0999"/><text fill="#000000" font-family="sans-serif" font-size="24" lengthAdjust="spacing" textLength="122.1836" x="4584" y="736.7559">NEWBPICK</text></g><!--entity NEWBLOCATION--><g class="entity" data-entity="NEWBLOCATION" data-source-line="179" data-uid="ent0036" id="entity_NEWBLOCATION"><rect fill="#D6E7DF" height="52.6879" rx="2.5" ry="2.5" style="stroke:#000000;stroke-width:0.5;" width="209.7914" x="4329" y="701.0999"/><text fill="#000000" font-family="sans-serif" font-size="24" lengthAdjust="spacing" textLength="189.7914" x="4339" y="736.7559">NEWBLOCATION</text></g><!--entity NEWBRELOCATION--><g class="entity" data-entity="NEWBRELOCATION" data-source-line="180" data-uid="ent0037" id="entity_NEWBRELOCATION"><rect fill="#D6E7DF" height="52.6879" rx="2.5" ry="2.5" style="stroke:#000000;stroke-width:0.5;" width="238.0634" x="4056" y="701.0999"/><text fill="#000000" font-family="sans-serif" font-size="24" lengthAdjust="spacing" textLength="218.0634" x="4066" y="736.7559">NEWBRELOCATION</text></g><!--entity note--><g class="entity" data-entity="note" data-source-line="183" data-uid="ent0038" id="entity_note"><rect fill="#D6E7DF" height="183.4395" rx="2.5" ry="2.5" style="stroke:#000000;stroke-width:0.5;" width="515.7905" x="7" y="210.0999"/><text fill="#0000FF" font-family="sans-serif" font-size="24" font-weight="bold" lengthAdjust="spacing" textLength="394.8469" x="17" y="245.7559">Blue arrows indicate Pick objects</text><text fill="#FF0000" font-family="sans-serif" font-size="24" font-weight="bold" lengthAdjust="spacing" textLength="412.6548" x="17" y="278.4438">Red arrows indicate Origin objects</text><text fill="#800080" font-family="sans-serif" font-size="24" font-weight="bold" lengthAdjust="spacing" textLength="495.7905" x="17" y="311.1317">Purple arrows indicate Amplitude objects</text><text fill="#008000" font-family="sans-serif" font-size="24" font-weight="bold" lengthAdjust="spacing" textLength="495.2145" x="17" y="343.8196">Green arrows indicate Magnitude objects</text><text fill="#000000" font-family="sans-serif" font-size="24" font-weight="bold" lengthAdjust="spacing" textLength="424.4627" x="17" y="376.5075">Black arrows indicate Event objects</text></g><!--link newb-autopick to NEWBPICK--><g class="link" data-entity-1="newb-autopick" data-entity-2="NEWBPICK" data-source-line="193" data-uid="lnk39" id="link_newb-autopick_NEWBPICK"><path d="M6084.8872,356.0829 C6084.663,357.0054 6084.4328,357.9333 6084.1962,358.8662 C6076.6275,388.7174 6062.66,423.5749 6037,445.0999 C5831.57,617.4099 4976.3897,699.6367 4722.0197,720.6167" fill="none" id="newb-autopick-to-NEWBPICK" style="stroke:#0000FF;stroke-width:3;"/><polygon fill="#0000FF" points="4716.04,721.1099,4725.3383,724.3566,4721.0231,720.6989,4724.6807,716.3837,4716.04,721.1099" style="stroke:#0000FF;stroke-width:3;"/></g><!--link cape-autopick to CAPEPICK--><g class="link" data-entity-1="cape-autopick" data-entity-2="CAPEPICK" data-source-line="194" data-uid="lnk40" id="link_cape-autopick_CAPEPICK"><path d="M2207,372.7426 C2207,374.8812 2207,377.0554 2207,379.2633 C2207,388.0947 2207,397.4645 2207,407.2489 C2207,426.8175 2207,448.044 2207,469.9362 C2207,557.5049 2207,649.7249 2207,695.0999" fill="none" id="cape-autopick-to-CAPEPICK" style="stroke:#0000FF;stroke-width:3;"/><polygon fill="#0000FF" points="2207,701.0999,2211,692.0999,2207,696.0999,2203,692.0999,2207,701.0999" style="stroke:#0000FF;stroke-width:3;"/></g><!--reverse link newb-scanloc to NEWBPICK--><g class="link" data-entity-1="newb-scanloc" data-entity-2="NEWBPICK" data-source-line="195" data-uid="lnk41" id="link_newb-scanloc_NEWBPICK"><path d="M5502.5201,355.9413 C5502.4104,356.3865 5503.5589,351.671 5503.4464,352.1194 C5502.9967,353.913 5502.5245,355.7321 5502.0288,357.5724 C5494.0975,387.0174 5480.155,421.8999 5456,445.0999 C5242.23,650.4199 4871.15,706.6199 4716.19,721.4799" fill="none" id="newb-scanloc-backto-NEWBPICK" style="stroke:#0000FF;stroke-width:3;"/><polygon fill="#0000FF" points="5503.943,350.1125,5497.9227,357.9071,5502.7572,354.9698,5505.6945,359.8043,5503.943,350.1125" style="stroke:#0000FF;stroke-width:3;"/></g><!--reverse link cape-scanloc to CAPEPICK--><g class="link" data-entity-1="cape-scanloc" data-entity-2="CAPEPICK" data-source-line="196" data-uid="lnk42" id="link_cape-scanloc_CAPEPICK"><path d="M1638.2286,411.585 C1638.3559,412.0651 1637.1658,407.4582 1637.2981,407.937 C1637.8272,409.852 1638.3959,411.7552 1639.0063,413.6428 C1640.2271,417.418 1641.6151,421.1309 1643.1885,424.7503 C1646.3353,431.9893 1650.2238,438.8549 1655,445.0999 C1792.34,624.6899 1936.89,515.1899 2124,642.0999 C2148.17,658.4899 2171.06,682.6999 2186.66,701.0099" fill="none" id="cape-scanloc-backto-CAPEPICK" style="stroke:#0000FF;stroke-width:3;"/><polygon fill="#0000FF" points="1636.7193,405.7779,1635.1118,415.4947,1637.977,410.6171,1642.8546,413.4824,1636.7193,405.7779" style="stroke:#0000FF;stroke-width:3;"/></g><!--link newb-scanloc to NEWBLOCATION--><g class="link" data-entity-1="newb-scanloc" data-entity-2="NEWBLOCATION" data-source-line="197" data-uid="lnk43" id="link_newb-scanloc_NEWBLOCATION"><path d="M5502.5107,361.0717 C5502.2851,361.9925 5503.2991,357.7774 5503.0613,358.7087 C5495.45,388.5099 5481.485,423.3699 5456,445.0999 C5144.75,710.4899 4932.33,479.4899 4557,642.0999 C4522.77,656.9299 4492.8218,678.07 4469.0618,697.01" fill="none" id="newb-scanloc-NEWBLOCATION" style="stroke:#FF0000;stroke-width:3;"/><polygon fill="#FF0000" points="5503.9244,355.2406,5497.9164,363.0447,5502.7463,360.0998,5505.6912,364.9297,5503.9244,355.2406" style="stroke:#FF0000;stroke-width:3;"/><polygon fill="#FF0000" points="4464.37,700.7499,4473.901,698.2678,4468.2798,697.6333,4468.9143,692.0121,4464.37,700.7499" style="stroke:#FF0000;stroke-width:3;"/></g><!--link cape-scanloc to CAPELOCATION--><g class="link" data-entity-1="cape-scanloc" data-entity-2="CAPELOCATION" data-source-line="198" data-uid="lnk44" id="link_cape-scanloc_CAPELOCATION"><path d="M1648.474,411.5177 C1648.6365,412.5259 1647.9732,408.3662 1648.1395,409.3749 C1648.805,413.4097 1649.5018,417.4456 1650.2309,421.4596 C1651.6891,429.4877 1653.2763,437.4287 1655,445.0999 C1676.65,541.4699 1714.5084,646.4675 1733.0084,695.4075" fill="none" id="cape-scanloc-CAPELOCATION" style="stroke:#FF0000;stroke-width:3;"/><polygon fill="#FF0000" points="1647.5248,405.5933,1644.999,415.1127,1648.3158,410.5303,1652.8983,413.8471,1647.5248,405.5933" style="stroke:#FF0000;stroke-width:3;"/><polygon fill="#FF0000" points="1735.13,701.0199,1735.6893,691.187,1733.362,696.3429,1728.2061,694.0157,1735.13,701.0199" style="stroke:#FF0000;stroke-width:3;"/></g><!--link screloc to NEWBLOCATION--><g class="link" data-entity-1="screloc" data-entity-2="NEWBLOCATION" data-source-line="199" data-uid="lnk45" id="link_screloc_NEWBLOCATION"><path d="M4957.4882,348.7525 C4956.5987,352.1556 4956.4564,352.3963 4955.4013,356.0162 C4946.96,384.9749 4933.05,419.8899 4911,445.0999 C4792.45,580.6199 4710.04,547.2399 4557,642.0999 C4526.83,660.7999 4498.6208,680.2043 4474.3608,697.4443" fill="none" id="screloc-NEWBLOCATION" style="stroke:#FF0000;stroke-width:3;"/><polygon fill="#FF0000" points="4958.9677,342.9378,4952.872,350.6735,4957.7348,347.7834,4960.6249,352.6462,4958.9677,342.9378" style="stroke:#FF0000;stroke-width:3;"/><polygon fill="#FF0000" points="4469.47,700.9199,4479.1233,698.9671,4473.5457,698.0236,4474.4892,692.446,4469.47,700.9199" style="stroke:#FF0000;stroke-width:3;"/></g><!--link screloc-cape to CAPELOCATION--><g class="link" data-entity-1="screloc-cape" data-entity-2="CAPELOCATION" data-source-line="200" data-uid="lnk46" id="link_screloc-cape_CAPELOCATION"><path d="M1099.5042,394.7371 C1100.1275,398.6401 1100.2071,398.0759 1101.1039,401.9512 C1104.6913,417.4524 1110.61,432.4874 1120,445.0999 C1247.67,616.5499 1497.98,684.8989 1639.5,711.0689" fill="none" id="screloc-cape-CAPELOCATION" style="stroke:#FF0000;stroke-width:3;"/><polygon fill="#FF0000" points="1098.605,388.8049,1095.999,398.3027,1099.3544,393.7484,1103.9087,397.1037,1098.605,388.8049" style="stroke:#FF0000;stroke-width:3;"/><polygon fill="#FF0000" points="1645.4,712.1599,1637.2774,706.5901,1640.4834,711.2507,1635.8227,714.4567,1645.4,712.1599" style="stroke:#FF0000;stroke-width:3;"/></g><!--reverse link newb_scrtdd to NEWBLOCATION--><g class="link" data-entity-1="newb_scrtdd" data-entity-2="NEWBLOCATION" data-source-line="201" data-uid="lnk47" id="link_newb_scrtdd_NEWBLOCATION"><path d="M4434,395.4192 C4434,400.0886 4434,402.3567 4434,407.2489 C4434,426.8175 4434,448.044 4434,469.9362 C4434,557.5049 4434,655.7249 4434,701.0999" fill="none" id="newb_scrtdd-backto-NEWBLOCATION" style="stroke:#FF0000;stroke-width:3;"/><polygon fill="#FF0000" points="4434,389.4192,4430,398.4192,4434,394.4192,4438,398.4192,4434,389.4192" style="stroke:#FF0000;stroke-width:3;"/></g><!--link newb_scrtdd to NEWBRELOCATION--><g class="link" data-entity-1="newb_scrtdd" data-entity-2="NEWBRELOCATION" data-source-line="202" data-uid="lnk48" id="link_newb_scrtdd_NEWBRELOCATION"><path d="M4425.8852,323.8528 C4425.7598,324.1717 4425.6332,324.4934 4425.5052,324.8181 C4424.4818,327.4151 4423.3767,330.1959 4422.1958,333.1364 C4419.834,339.0172 4417.1691,345.5365 4414.2488,352.5012 C4402.5675,380.3599 4386.8,415.3449 4370,445.0999 C4314.03,544.2399 4236.3559,647.8378 4198.9159,696.1378" fill="none" id="newb_scrtdd-to-NEWBRELOCATION" style="stroke:#FF0000;stroke-width:3;"/><polygon fill="#FF0000" points="4195.24,700.8799,4203.9153,696.2173,4198.3032,696.9282,4197.5924,691.3161,4195.24,700.8799" style="stroke:#FF0000;stroke-width:3;"/></g><!--reverse link scrtdd to CAPELOCATION--><g class="link" data-entity-1="scrtdd" data-entity-2="CAPELOCATION" data-source-line="203" data-uid="lnk49" id="link_scrtdd_CAPELOCATION"><path d="M575.9522,394.9569 C576.6173,398.8474 576.9961,399.7124 577.9731,403.5416 C581.8813,418.8587 588.45,433.4199 599,445.0999 C740.11,601.2999 1393.14,688.1199 1645.28,716.2899" fill="none" id="scrtdd-backto-CAPELOCATION" style="stroke:#FF0000;stroke-width:3;"/><polygon fill="#FF0000" points="575.0484,389.0254,572.4498,398.5252,575.8016,393.9683,580.3585,397.3202,575.0484,389.0254" style="stroke:#FF0000;stroke-width:3;"/></g><!--link scrtdd to CAPERELOCATION--><g class="link" data-entity-1="scrtdd" data-entity-2="CAPERELOCATION" data-source-line="204" data-uid="lnk50" id="link_scrtdd_CAPERELOCATION"><path d="M574.05,389.1393 C574.0861,389.3827 574.1228,389.626 574.16,389.8694 C574.309,390.8426 574.4673,391.815 574.6352,392.7861 C575.3069,396.6703 576.1323,400.5328 577.1336,404.339 C581.1388,419.5637 587.9575,433.8874 599,445.0999 C997.64,849.8799 1331.06,439.9399 1862,642.0999 C1898.93,656.1599 1931.5686,678.0321 1956.9086,697.3521" fill="none" id="scrtdd-to-CAPERELOCATION" style="stroke:#FF0000;stroke-width:3;"/><polygon fill="#FF0000" points="1961.68,700.9899,1956.9482,692.3522,1957.7039,697.9584,1952.0977,698.7141,1961.68,700.9899" style="stroke:#FF0000;stroke-width:3;"/></g><!--reverse link scamp to PICK--><g class="link" data-entity-1="scamp" data-entity-2="PICK" data-source-line="205" data-uid="lnk51" id="link_scamp_PICK"><path d="M4077.0748,373.9595 C4018.2948,469.4495 3915.58,636.3099 3875.74,701.0299" fill="none" id="scamp-backto-PICK" style="stroke:#0000FF;stroke-width:3;"/><polygon fill="#0000FF" points="4080.22,368.8499,4072.0958,374.4174,4077.599,373.1079,4078.9085,378.6111,4080.22,368.8499" style="stroke:#0000FF;stroke-width:3;"/></g><!--reverse link scamp to NEWBPICK--><g class="link" data-entity-1="scamp" data-entity-2="NEWBPICK" data-source-line="206" data-uid="lnk52" id="link_scamp_NEWBPICK"><path d="M4216.4882,372.4756 C4306.2182,439.0656 4441.66,542.2799 4557,642.0999 C4578.78,660.9499 4602.26,683.6199 4619.48,700.7299" fill="none" id="scamp-backto-NEWBPICK" style="stroke:#0000FF;stroke-width:3;"/><polygon fill="#0000FF" points="4211.67,368.8999,4216.5135,377.4755,4215.6851,371.8796,4221.281,371.0513,4211.67,368.8999" style="stroke:#0000FF;stroke-width:3;"/></g><!--reverse link scamp to CAPEPICK--><g class="link" data-entity-1="scamp" data-entity-2="CAPEPICK" data-source-line="207" data-uid="lnk53" id="link_scamp_CAPEPICK"><path d="M4018.4902,371.8848 C3973.7602,399.4148 3924.05,426.1699 3871,445.0999 C3274.96,657.8399 2500.11,711.9799 2272.52,723.7099" fill="none" id="scamp-backto-CAPEPICK" style="stroke:#0000FF;stroke-width:3;"/><polygon fill="#0000FF" points="4023.6,368.7399,4013.8388,370.0508,4019.3419,371.3607,4018.032,376.8638,4023.6,368.7399" style="stroke:#0000FF;stroke-width:3;"/></g><!--link scamp to AMPLITUDE--><g class="link" data-entity-1="scamp" data-entity-2="AMPLITUDE" data-source-line="208" data-uid="lnk54" id="link_scamp_AMPLITUDE"><path d="M4056.94,368.8499 C3964.6,464.3399 3802.4811,631.9969 3739.8911,696.7169" fill="none" id="scamp-to-AMPLITUDE" style="stroke:#800080;stroke-width:3;"/><polygon fill="#800080" points="3735.72,701.0299,3744.852,697.3411,3739.1959,697.4357,3739.1013,691.7797,3735.72,701.0299" style="stroke:#800080;stroke-width:3;"/></g><!--reverse link scmag to AMPLITUDE--><g class="link" data-entity-1="scmag" data-entity-2="AMPLITUDE" data-source-line="209" data-uid="lnk55" id="link_scmag_AMPLITUDE"><path d="M3627.8721,390.934 C3652.0321,488.504 3689.45,639.5599 3704.63,700.8699" fill="none" id="scmag-backto-AMPLITUDE" style="stroke:#800080;stroke-width:3;"/><polygon fill="#800080" points="3626.43,385.1099,3624.7105,394.8075,3627.6318,389.9634,3632.476,392.8847,3626.43,385.1099" style="stroke:#800080;stroke-width:3;"/></g><!--reverse link scmag to LOCATION--><g class="link" data-entity-1="scmag" data-entity-2="LOCATION" data-source-line="210" data-uid="lnk56" id="link_scmag_LOCATION"><path d="M3549.0168,390.1385 C3485.5068,487.7085 3386.66,639.5599 3346.75,700.8699" fill="none" id="scmag-backto-LOCATION" style="stroke:#FF0000;stroke-width:3;"/><polygon fill="#FF0000" points="3552.29,385.1099,3544.0279,390.4706,3549.5624,389.3004,3550.7326,394.8349,3552.29,385.1099" style="stroke:#FF0000;stroke-width:3;"/></g><!--reverse link scmag to NEWBLOCATION--><g class="link" data-entity-1="scmag" data-entity-2="NEWBLOCATION" data-source-line="211" data-uid="lnk57" id="link_scmag_NEWBLOCATION"><path d="M3760.2481,388.0046 C3797.8381,408.1546 3833.03,426.4399 3871,445.0999 C4063.66,539.7699 4124.96,536.7499 4312,642.0999 C4343.32,659.7399 4376.73,683.2399 4400.66,700.9899" fill="none" id="scmag-backto-NEWBLOCATION" style="stroke:#FF0000;stroke-width:3;"/><polygon fill="#FF0000" points="3754.96,385.1699,3761.0024,392.9474,3759.3668,387.5322,3764.782,385.8965,3754.96,385.1699" style="stroke:#FF0000;stroke-width:3;"/></g><!--reverse link scmag to CAPELOCATION--><g class="link" data-entity-1="scmag" data-entity-2="CAPELOCATION" data-source-line="212" data-uid="lnk58" id="link_scmag_CAPELOCATION"><path d="M3470.3056,387.9967 C3428.9856,410.7767 3387.46,430.3599 3342,445.0999 C2710.79,649.8299 2478.51,396.6399 1862,642.0999 C1827.78,655.7199 1794.28,681.5599 1771.96,701.0999" fill="none" id="scmag-backto-CAPELOCATION" style="stroke:#FF0000;stroke-width:3;"/><polygon fill="#FF0000" points="3475.56,385.0999,3465.7472,385.9422,3471.1813,387.5139,3469.6096,392.948,3475.56,385.0999" style="stroke:#FF0000;stroke-width:3;"/></g><!--reverse link scmag to CAPERELOCATION--><g class="link" data-entity-1="scmag" data-entity-2="CAPERELOCATION" data-source-line="213" data-uid="lnk59" id="link_scmag_CAPERELOCATION"><path d="M3468.3489,388.1345 C3427.4389,410.5645 3386.63,429.9299 3342,445.0999 C2822.81,621.5799 2635.93,445.5299 2124,642.0999 C2087.11,656.2599 2049.69,681.7599 2024.34,701.0499" fill="none" id="scmag-backto-CAPERELOCATION" style="stroke:#FF0000;stroke-width:3;"/><polygon fill="#FF0000" points="3473.61,385.2499,3463.7953,386.0693,3469.2257,387.6537,3467.6414,393.0842,3473.61,385.2499" style="stroke:#FF0000;stroke-width:3;"/></g><!--reverse link scmag to NEWBRELOCATION--><g class="link" data-entity-1="scmag" data-entity-2="NEWBRELOCATION" data-source-line="214" data-uid="lnk60" id="link_scmag_NEWBRELOCATION"><path d="M3721.5312,388.695 C3852.4712,486.265 4058.2,639.5599 4140.48,700.8699" fill="none" id="scmag-backto-NEWBRELOCATION" style="stroke:#FF0000;stroke-width:3;"/><polygon fill="#FF0000" points="3716.72,385.1099,3721.5467,393.695,3720.7293,388.0975,3726.3268,387.2801,3716.72,385.1099" style="stroke:#FF0000;stroke-width:3;"/></g><!--link scmag to MAGNITUDE--><g class="link" data-entity-1="scmag" data-entity-2="MAGNITUDE" data-source-line="215" data-uid="lnk61" id="link_scmag_MAGNITUDE"><path d="M3588.68,385.1099 C3568.2,482.6799 3536.5026,633.6879 3523.6326,694.9979" fill="none" id="scmag-to-MAGNITUDE" style="stroke:#008000;stroke-width:3;"/><polygon fill="#008000" points="3522.4,700.8699,3528.1636,692.8837,3523.4272,695.9766,3520.3343,691.2401,3522.4,700.8699" style="stroke:#008000;stroke-width:3;"/></g><!--reverse link scevent to LOCATION--><g class="link" data-entity-1="scevent" data-entity-2="LOCATION" data-source-line="216" data-uid="lnk62" id="link_scevent_LOCATION"><path d="M3148.7753,406.4317 C3204.1653,504.3017 3282.47,642.6299 3315.37,700.7499" fill="none" id="scevent-backto-LOCATION" style="stroke:#FF0000;stroke-width:3;"/><polygon fill="#FF0000" points="3145.82,401.2099,3146.7717,411.0127,3148.2827,405.5614,3153.734,407.0723,3145.82,401.2099" style="stroke:#FF0000;stroke-width:3;"/></g><!--reverse link scevent to CAPELOCATION--><g class="link" data-entity-1="scevent" data-entity-2="CAPELOCATION" data-source-line="217" data-uid="lnk63" id="link_scevent_CAPELOCATION"><path d="M2883.9129,403.6515 C2846.7529,419.7215 2813.37,432.7499 2776,445.0999 C2381.43,575.4899 2241.62,473.0799 1862,642.0999 C1828.81,656.8799 1795.68,682.0199 1773.19,701.0499" fill="none" id="scevent-backto-CAPELOCATION" style="stroke:#FF0000;stroke-width:3;"/><polygon fill="#FF0000" points="2889.42,401.2699,2879.5716,401.1709,2884.8308,403.2546,2882.7471,408.5137,2889.42,401.2699" style="stroke:#FF0000;stroke-width:3;"/></g><!--reverse link scevent to CAPERELOCATION--><g class="link" data-entity-1="scevent" data-entity-2="CAPERELOCATION" data-source-line="218" data-uid="lnk64" id="link_scevent_CAPERELOCATION"><path d="M2877.5351,403.5995 C2842.1651,419.1095 2811.02,431.9299 2776,445.0999 C2492.66,551.6599 2398.76,515.0399 2124,642.0999 C2089,658.2899 2052.37,682.6399 2026.78,701.0399" fill="none" id="scevent-backto-CAPERELOCATION" style="stroke:#FF0000;stroke-width:3;"/><polygon fill="#FF0000" points="2883.03,401.1899,2873.1813,401.141,2878.4509,403.1979,2876.394,408.4675,2883.03,401.1899" style="stroke:#FF0000;stroke-width:3;"/></g><!--reverse link scevent to MAGNITUDE--><g class="link" data-entity-1="scevent" data-entity-2="MAGNITUDE" data-source-line="219" data-uid="lnk65" id="link_scevent_MAGNITUDE"><path d="M3193.5577,405.4374 C3292.1277,503.3074 3432.43,642.6299 3490.97,700.7499" fill="none" id="scevent-backto-MAGNITUDE" style="stroke:#008000;stroke-width:3;"/><polygon fill="#008000" points="3189.3,401.2099,3192.8683,410.3897,3192.8481,404.7328,3198.5049,404.7127,3189.3,401.2099" style="stroke:#008000;stroke-width:3;"/></g><!--reverse link scevent to NEWBLOCATION--><g class="link" data-entity-1="scevent" data-entity-2="NEWBLOCATION" data-source-line="220" data-uid="lnk66" id="link_scevent_NEWBLOCATION"><path d="M3251.9399,403.9413 C3282.7299,420.4213 3310.1,433.1799 3342,445.0999 C3754.1,599.0399 3907.34,469.5499 4312,642.0999 C4346.37,656.7499 4380.94,681.9199 4404.46,700.9799" fill="none" id="scevent-backto-NEWBLOCATION" style="stroke:#FF0000;stroke-width:3;"/><polygon fill="#FF0000" points="3246.65,401.1099,3252.6973,408.8836,3251.0583,403.4694,3256.4725,401.8304,3246.65,401.1099" style="stroke:#FF0000;stroke-width:3;"/></g><!--reverse link scevent to NEWBRELOCATION--><g class="link" data-entity-1="scevent" data-entity-2="NEWBRELOCATION" data-source-line="221" data-uid="lnk67" id="link_scevent_NEWBRELOCATION"><path d="M3259.3643,404.1003 C3288.1843,419.7303 3312.98,432.1299 3342,445.0999 C3413.3,476.9599 3902.83,637.7399 4096.43,700.9899" fill="none" id="scevent-backto-NEWBRELOCATION" style="stroke:#FF0000;stroke-width:3;"/><polygon fill="#FF0000" points="3254.09,401.2399,3260.0945,409.0467,3258.4852,403.6236,3263.9084,402.0144,3254.09,401.2399" style="stroke:#FF0000;stroke-width:3;"/></g><!--link scevent to EVENT--><g class="link" data-entity-1="scevent" data-entity-2="EVENT" data-source-line="222" data-uid="lnk68" id="link_scevent_EVENT"><path d="M3110.47,401.2099 C3130.78,499.0799 3159.351,636.7551 3171.411,694.8751" fill="none" id="scevent-to-EVENT" style="stroke:#000000;stroke-width:3;"/><polygon fill="#000000" points="3172.63,700.7499,3174.718,691.125,3171.6141,695.8542,3166.8849,692.7503,3172.63,700.7499" style="stroke:#000000;stroke-width:3;"/></g><!--SRC=[pLXRRzis57xtho2IXsn0FRXrtGP5Qi2tTK5jnx3JxQ481bcYRCuoAP1KZ6peV-yXPSaYJSeEa01JW2G- -iXpldCbVON6_UaOBJ0H0xQTePIp40j1w0gnHymV2TwX7P5hH0HB0eaZj8NNmKe1KfBYX50i6eqh74ia6U9ajPOe8Xo7aZ0ABz0Gnu11GZubW1GRGjE01riaYKpmxupA1VaNeqwhyee7T2DmYjgjLkDA55BA8goaRq5Q1OEgWAuIZFvh8DGFmisAiun60vOmZYunZfMOyGZpNDHF00EoKlUxz_2fnpdRLKK_pjSHVS0VepX-0KKXswQCOYhTYk8elevQBw4e2cIm38I7K1n7By0bOLdasVzQ_LWgBjljzlCq1A64THu6eRrzfzDvtlOguLvlzvHnJvHR-ZcAyhag6WrTMeUQFbHidB3T9nHpS5p6iQhE0uX5cIhGGmPU388KDqMAGnAJ44rom8Ms6LLAuY9Kk22JB2NXfdXlOlXRzBqKgsSIRB10Qe50Z2Ab2fAVIa8pbWcq2nvnpFXM68kQy1Y21QQHG3FO1R7bFw1Dg2OqwCr6izl1LwIycfOB7lH_FvpMYp2W2Giznh-pZB-l61zpjlLfTDeymrmpGyF-Oj2RGfbaGcAkEoxDDtrZB02xeF6A0WWjE0SXkSOK2UK20y-W2HDgEsHyD-ZTtzvDptEA23a6lKtb78zJsawdvCehRYdqrZjbZWkME0ZN1GKzUARZCGjDZsZEYC9esWCjZYVO0JaPHMvMxr-7bMRonrFAXaCKqCWVjJsJkPyB57YrHjbs2sdZBKv8x6rQuNIpx6fHmsdqKMAhf5xaAIEgInfc1SA62P4Pp6T5e3UPZM_llmr7bLnxEB9h6wnikq1KPrT5YpREfKSzoi56nCpShoC25j03aKdlo_Gq4Voe8c5GkI7TlRoEJs6ZihUYM9bS8alJ5UXWJzdIIs1ExJUtlfnSRcYbBup-74tl3MvcSatnReavVpfd240rBayDWKxz42ZKlTWWc8x-wfy_23I3-a7muTGWy6Zylmm2PTwp1i5-3hYzyV5qhwmgVEq9uDHL4-k_ypdW2VNrwv1xpY1G-zSF0dM2cvIdkxm5e6RkmU9s1ZUtyl9cd-ugHyDyyN5X5qSRXzYmp7nLCTivhqxhrRt9afKDtvANVT6IUmpKTDoTxWp3YX9tY3twh3Y2viCxoYJUPvgQ6w4wwNzQ9Xdkzk4N2jJn7k978wBon-XmrYBe1zqvz0HxoPtH1Qn5QSRJ17Td-i_HqbunS3shLnnZslsYVX-jdHG3pLwhRv97y55rDZKUT6OF6ANvzmW2BR7SAJNxQugkdVBx1_HB-Oq3-goljlgcysl3dahDxvVAjs_a6Zx2Gl6v_T3i7a9gNsKy-B8ch9bnuyJRsv-2r-qEGNOPN-QMGuDZYL6yHOi_QtlpNd3EzfLEwyQR6gfmlq5pmtp_rZPH_wvMqygFpPu0wU3K8ig8rwBAGESe0ENbQDjsQ7lvgVd6WtG2ZvrI8Ua76K6f0rekhWVEHsShFu82KlSRspk7vbySnK_IheDPV4v1vswmmzAp3RLSVmhgi42d6tHPsrNvJFq9]--></g></svg>